<svg width="26" height="26" viewBox="0 0 26 26" fill="none" xmlns="http://www.w3.org/2000/svg">
<path d="M8.66667 10.8333H8.6775M13 10.8333H13.0108M17.3333 10.8333H17.3442M9.75 17.3333H5.41667C4.84203 17.3333 4.29093 17.105 3.8846 16.6987C3.47827 16.2924 3.25 15.7413 3.25 15.1666V6.49998C3.25 5.92534 3.47827 5.37424 3.8846 4.96791C4.29093 4.56159 4.84203 4.33331 5.41667 4.33331H20.5833C21.158 4.33331 21.7091 4.56159 22.1154 4.96791C22.5217 5.37424 22.75 5.92534 22.75 6.49998V15.1666C22.75 15.7413 22.5217 16.2924 22.1154 16.6987C21.7091 17.105 21.158 17.3333 20.5833 17.3333H15.1667L9.75 22.75V17.3333Z" stroke="white" stroke-width="2" stroke-linecap="square" stroke-linejoin="round"/>
</svg>
