<svg width="17" height="17" viewBox="0 0 17 17" fill="none" xmlns="http://www.w3.org/2000/svg">
<g id="map/med">
<path id="Vector" d="M6.375 14.1667L2.51671 12.2372C2.39907 12.1784 2.30012 12.088 2.23093 11.9762C2.16175 11.8644 2.12507 11.7355 2.125 11.604V3.97946C2.12506 3.85876 2.15597 3.74009 2.21478 3.63469C2.27359 3.5293 2.35835 3.44067 2.46103 3.37724C2.56371 3.3138 2.68089 3.27765 2.80146 3.27222C2.92203 3.26679 3.04199 3.29226 3.14996 3.34621L6.375 4.95837M6.375 14.1667V4.95837M6.375 14.1667L10.625 12.0417M6.375 4.95837L10.625 2.83337M10.625 12.0417L13.85 13.6539C13.958 13.7078 14.078 13.7333 14.1985 13.7279C14.3191 13.7224 14.4363 13.6863 14.539 13.6228C14.6416 13.5594 14.7264 13.4708 14.7852 13.3654C14.844 13.26 14.8749 13.1413 14.875 13.0206V5.39612C14.8749 5.26461 14.8382 5.13572 14.7691 5.02388C14.6999 4.91203 14.6009 4.82166 14.4833 4.76287L10.625 2.83337M10.625 12.0417V2.83337" stroke="white" stroke-width="2" stroke-linecap="square" stroke-linejoin="round"/>
</g>
</svg>
